# xmcd
#
# Track frame offsets:
# 150
# 17164
# 30180
# 43857
# 61049
# 79797
# 93005
# 110081
# 125018
# 138345
# 154042
# 172354
#
# Disc length: 2854 seconds
#
# Revision: 0
# Processed by: cddbd v1.5.2PL0 Copyright (c) Steve Scherf et al.
# Submitted via: Audion 3.0.2 (http://www.panic.com/audion/)
#
DISCID=970b240c
DTITLE=Hjärtat fullt - Anna and Idde
DYEAR=1900
DGENRE=
TTITLE0=Chaufför
TTITLE1=En plats i solen
TTITLE2=Där dimma döljer dag
TTITLE3=Vind i seglen
TTITLE4=Fyra dörrar till min syster
TTITLE5=Jordeliv
TTITLE6=Tokyo line
TTITLE7=Huvet fullt
TTITLE8=Genom glas
TTITLE9=Ditt mörka hår
TTITLE10=Allt det du drömde om
TTITLE11=För dig för mig
EXTD=
EXTT0=
EXTT1=
EXTT2=
EXTT3=
EXTT4=
EXTT5=
EXTT6=
EXTT7=
EXTT8=
EXTT9=
EXTT10=
EXTT11=
PLAYORDER=
